
<svg
    viewBox="0 0 24 24"
     fill="currentColor">
    <path
       d="M 11.565608,2.0021377 A 0.87654771,0.90957535 0 0 0 11.021244,2.2579301 L 2.2566436,11.352773 a 0.87646006,0.90948441 0 0 0 0,1.286069 l 8.7646004,9.094845 a 0.87646006,0.90948441 0 0 0 1.239369,0 0.87646006,0.90948441 0 0 0 0,-1.286069 L 4.9921579,12.905292 H 21.134771 a 0.87654771,0.90957535 0 0 0 0.749785,-0.458294 0.87654771,0.90957535 0 0 0 0,-0.90238 0.87654771,0.90957535 0 0 0 -0.749785,-0.458295 H 4.9921579 L 12.260613,3.543998 a 0.87654771,0.90957535 0 0 0 0.215692,-0.8739577 0.87654771,0.90957535 0 0 0 -0.612837,-0.6359286 0.87654771,0.90957535 0 0 0 -0.29786,-0.031974 z"
       />
</svg>
