
<svg
   
   viewBox="0 0 24 24"
     fill="currentColor"
   >
  <path
     d="m 5.277195,2.497672 c -0.9972,0 -1.723777,0.9032978 -1.723777,1.8797445 v 1.5379724 c 0,0.4732214 0.156307,0.9316712 0.468868,1.2923264 l 5.391971,6.2230907 c 0.0026,0.003 0.02075,0.03711 0.02075,0.07834 v 5.628555 c 0,0.815122 0.483591,1.588728 1.282491,1.819221 l 1.68241,0.484177 c 1.116994,0.322151 2.165061,-0.67722 2.165061,-1.819222 v -6.112731 c 0,-0.04111 0.01796,-0.07522 0.02075,-0.07834 L 19.977718,7.207715 C 20.290331,6.8470558 20.446746,6.3889312 20.446582,5.9153886 V 4.3774162 c 0,-0.9764339 -0.726674,-1.8797444 -1.723773,-1.8797444 z m 0,1.8227828 h 13.445462 c -0.06863,0 -0.04138,-0.03783 -0.04138,0.05696 v 1.5379726 c 1.3e-5,0.041062 -0.01796,0.075172 -0.02075,0.078321 l -5.39199,6.2195356 c -0.312494,0.360619 -0.46887,0.822565 -0.46887,1.295883 v 6.112731 c 0,0.120038 0.01996,0.04789 0.07586,0.06409 l -1.682404,-0.484177 c 0.05048,0.01476 0.0068,0.01117 0.0068,-0.06408 v -5.628554 c -4e-6,-0.473235 -0.156227,-0.935185 -0.468868,-1.295884 L 5.339251,5.993712 C 5.336451,5.990582 5.318501,5.956641 5.318501,5.915391 V 4.3774177 c 0,-0.09487 0.02753,-0.05696 -0.04138,-0.05696 z"
   />

</svg>
