<?xml version="1.0" encoding="UTF-8" standalone="no"?>
<!-- Created with Inkscape (http://www.inkscape.org/) -->

<svg
   viewBox="0 0 24 24"
   fill="currentColor"
>
  <path
     d="M 10.924008,4.0000004 C 7.1054325,4.0000004 4,7.1062964 4,10.925002 c 0,3.81868 3.1054286,6.923826 6.924008,6.923826 1.74008,0 3.333956,-0.645539 4.551046,-1.707988 l 3.721081,3.721058 a 0.47058009,0.47059634 0 0 0 0.666034,0 0.47058009,0.47059634 0 0 0 0,-0.665526 l -3.721081,-3.721056 c 1.062218,-1.217079 1.708074,-2.810383 1.708074,-4.550314 0,-3.8187106 -3.106605,-6.9250016 -6.925154,-6.9250016 z m 0,0.94116 c 3.309905,0 5.983993,2.673799 5.983993,5.9838416 0,1.652194 -0.668192,3.141282 -1.748196,4.224029 -1.083584,1.086589 -2.577993,1.758637 -4.235797,1.758637 -3.3099293,0 -5.9828478,-2.672648 -5.9828478,-5.982666 0,-3.3100476 2.6729135,-5.9838416 5.9828478,-5.9838416 z"/>
 
</svg>
